<svg xmlns="http://www.w3.org/2000/svg" width="24" height="24" viewBox="0 0 24 24">
  <g fill="#0AF" fill-rule="evenodd">
    <path d="M2 0L9 0 9 0C10.1045695-2.02906125e-16 11 .8954305 11 2L11 11 2 11 2 11C.8954305 11 1.3527075e-16 10.1045695 0 9L0 2 0 2C-1.3527075e-16.8954305.8954305 2.02906125e-16 2 0zM2 13L11 13 11 22 11 22C11 23.1045695 10.1045695 24 9 24L2 24 2 24C.8954305 24 1.3527075e-16 23.1045695 0 22L0 15 0 15C-1.3527075e-16 13.8954305.8954305 13 2 13zM13 13L22 13 22 13C23.1045695 13 24 13.8954305 24 15L24 22 24 22C24 23.1045695 23.1045695 24 22 24L15 24 15 24C13.8954305 24 13 23.1045695 13 22L13 13zM15 0L22 0 22 0C23.1045695-2.02906125e-16 24 .8954305 24 2L24 9 24 9C24 10.1045695 23.1045695 11 22 11L13 11 13 2 13 2C13 .8954305 13.8954305 2.02906125e-16 15 0z"/>
  </g>
</svg>
