<svg xmlns="http://www.w3.org/2000/svg" width="24" height="24" viewBox="0 0 24 24">
  <g fill="none" fill-rule="evenodd" stroke="#000">
    <path d="M10.5 10.5L10.5 2C10.5 1.17157288 9.82842712.5 9 .5L2 .5C1.17157288.5.5 1.17157288.5 2L.5 9C.5 9.82842712 1.17157288 10.5 2 10.5L10.5 10.5zM10.5 13.5L2 13.5C1.17157288 13.5.5 14.1715729.5 15L.5 22C.5 22.8284271 1.17157288 23.5 2 23.5L9 23.5C9.82842712 23.5 10.5 22.8284271 10.5 22L10.5 13.5zM13.5 13.5L13.5 22C13.5 22.8284271 14.1715729 23.5 15 23.5L22 23.5C22.8284271 23.5 23.5 22.8284271 23.5 22L23.5 15C23.5 14.1715729 22.8284271 13.5 22 13.5L13.5 13.5zM13.5 10.5L22 10.5C22.8284271 10.5 23.5 9.82842712 23.5 9L23.5 2C23.5 1.17157288 22.8284271.5 22 .5L15 .5C14.1715729.5 13.5 1.17157288 13.5 2L13.5 10.5z"/>
  </g>
</svg>
