<svg xmlns="http://www.w3.org/2000/svg" width="20" height="19" viewBox="0 0 20 19">
  <g fill="none" fill-rule="evenodd">
    <g fill="#000" transform="translate(0 2)">
      <path d="M3.02746439 0L0 0 0 1 3.02746439 1C3.00931666.835833074 3 .669004548 3 .5 3 .330995452 3.00931666.164166926 3.02746439-3.68563513e-12zM11.9725356 0L20 0 20 1 11.9725356 1C11.9906833.835833074 12 .669004548 12 .5 12 .330995452 11.9906833.164166926 11.9725356-3.68580166e-12zM8.02746439 14L0 14 0 15 8.02746439 15C8.00931666 14.8358331 8 14.6690045 8 14.5 8 14.3309955 8.00931666 14.1641669 8.02746439 14zM16.9725356 14L20 14 20 15 16.9725356 15C16.9906833 14.8358331 17 14.6690045 17 14.5 17 14.3309955 16.9906833 14.1641669 16.9725356 14z"/>
    </g>
    <circle cx="7.5" cy="2.5" r="2" stroke="#000"/>
    <circle cx="12.5" cy="16.5" r="2" stroke="#000"/>
  </g>
</svg>
